<svg id="Layer_1" data-name="Layer 1" xmlns="http://www.w3.org/2000/svg" viewBox="0 0 469.98 158.12"><path d="M454.62,485.39c1.33.08,8.81.11,9.67-.11.22-1.14.08-26.31.08-28.1,0-9.38.2-18.68.34-28s0-18.91,0-28.35c0-8.39-.11-18,.11-26.3,0-.37-.08-1.51.2-1.76,1.33-.6,24.63-.45,27.84-.28,23.5,1.22,38.43,16.61,43.4,41.16,3.54,17.49.51,38.52-8.93,51.39a49.79,49.79,0,0,1-6.67,7.54,40.28,40.28,0,0,1-13.06,8c-1.82.65-3.55,1.22-5.42,1.7-1.16.29-5.1.91-5.84,1.25l-.05,2c4.05.11,10.23-1.51,13.83-2.67a57.59,57.59,0,0,0,11.42-5.1,56.2,56.2,0,0,0,12.59-9.95c.37-.37.57-.71.93-1.11,6.5-6.8,11.66-17.43,13.55-27.72a60.63,60.63,0,0,0-6.74-40.65,57.07,57.07,0,0,0-3.21-5L536,389.86a53.36,53.36,0,0,0-20.32-14.8c-10-4-17.15-4.87-27.95-4.9l-24.72,0c-2.52,0-5.89-.23-8.33,0-.26,1.48-.06,56.24-.06,57.63,0,9.61,0,19.22,0,28.83v14.32c0,4.59-.28,10,0,14.51Z" transform="translate(-79.68 -370.02)"/><path d="M79.68,371.27c1.36.56,3.94.11,5.39,2.32,1.19,1.81.88,4.68.88,7l0,78.29c0,5.19.08,10.41,0,15.59,0,2.36,0,5-1,6.89s-2.49,2.38-5.21,2.67l.06,1.24c2.32.2,8.78,0,11.82,0l1.9,0c1,0,.85-.17.76-1.25-2.44-.34-3.8-.51-5-2.07s-1.27-3.65-1.3-5.81c-.09-4.73,0-9.58,0-14.31v-57c0-9.46.2-19.13,0-28.57.91.45,4.68,5.84,5.36,6.72l10.54,13.72c.91,1.22,1.73,2.15,2.64,3.34l62.76,82.61c1.16,1.44,2.18,3.48,3.06,2.58.51-.54.2-6,.23-7.15l0-22.68c-.17-19.87,0-40.25,0-60.17,0-5,0-10.1,0-15.11,0-2.24.08-4.88,1.19-6.44,1.44-2,2.49-1.84,5.16-2.41l.14-1c-1.11-.28-13-.23-14.6-.06l0,.91a10.63,10.63,0,0,0,2.44.57c2.58.79,3.4,2.86,3.71,5.58.4,3.49.06,8.76.06,12.45l-.43,74.07L141.65,426.2c-.74-1-1.53-2.07-2.27-3C136,419,129.26,410.07,126,405.59L108.28,382c-1.47-2-3-3.91-4.39-5.81l-4.45-5.93c-1.5-.2-18.88-.22-19.76,0Z" transform="translate(-79.68 -370.02)"/><path d="M252.59,425.66c-.42-.76-.14-4.9-.17-6.12s.12-5.53,0-6.21l-18.68,0a1.89,1.89,0,0,0-.09,1.25c2.61.74,6.86-.25,7.23,6.75.26,4.45.06,9.61,0,14.14v28.35c0,4.39,1,16.75-2.07,19-2.24,1.64-5.22.62-5.41,1.67-.23,1.25.85.94,2.49.94h3.6l14.17,0h3.49c1.39,0,2.64.43,2.07-1.28-2-.76-6.29.71-6.63-5.47-.2-4-.09-8.27-.09-12.3,0-8.13,0-16.27,0-24.41,0-8.44-.28-11.79,5.41-19a11.53,11.53,0,0,1,1.39-1.61,26.21,26.21,0,0,1,5.1-4c8.62-4.82,20.81-3.6,26,5.18,3.92,6.52,3.86,12,3.83,20.61,0,5.13.26,32.77-.17,36.48-.37,3.18-2,4-4.73,4.4-1.31.17-2.07-.23-1.59,1.33a3.43,3.43,0,0,0,1.45.17c.53,0,1,0,1.58,0,3.86,0,21.09.2,22.11-.08.2-1.82.15-1-2.86-1.54-4.68-.85-4.36-5.21-4.36-9.72,0-6.23,0-12.47,0-18.74,0-6.12.22-12.44-.26-18.42a30.65,30.65,0,0,0-5-13.75,25,25,0,0,0-10.29-8.45,31.35,31.35,0,0,0-16.07-2.35,26.36,26.36,0,0,0-21.06,15.11c-.23.6-.23.62-.54.85Z" transform="translate(-79.68 -370.02)"/><path d="M362.12,413.47a24.23,24.23,0,0,1,13,2.58,18.17,18.17,0,0,1,4.53,3.32c7.17,6.46,10.52,17,10.83,28,.26,9.61-1.27,17.35-5.61,25.54a25.92,25.92,0,0,1-7.43,8.17c-6.55,4.9-18.05,5.19-24.89,1.44a25.93,25.93,0,0,1-8.36-7.22c-7-9.44-8.22-26.54-5.58-38.56,2.8-12.58,8.78-21.65,23.52-23.3Zm-.73-1.41c-9.9.59-18.14,3.88-24.86,10.65a30.62,30.62,0,0,0-5.33,6.47,37.24,37.24,0,0,0-3.23,6.23,39,39,0,0,0-2.75,16.25c.45,8.56,4,17.37,10,23,.45.46.62.68,1.13,1.22a15.56,15.56,0,0,0,1.36,1.16c6.29,5.7,16.84,10.09,28.49,9.33a38.48,38.48,0,0,0,22.45-8.28,34.78,34.78,0,0,0,7.85-8.67,37.56,37.56,0,0,0-2.07-43.12,36.57,36.57,0,0,0-16.52-12,40.92,40.92,0,0,0-16.5-2.29Z" transform="translate(-79.68 -370.02)"/><path d="M196.27,414.64c3.71.14,5.73.65,6.89,3.57.88,2.15.59,7.37.62,10l0,41.89c0,4.08.85,11.48-2.69,13.1-1.62.73-2.78.51-4.45.88l-.09,1.27,23,0c2,0,2.63.31,2.77-.48.43-2.5-5.72,1.42-6.94-6.07-.54-3.31-.17-9.32-.17-13,0-2.07.14-50.77-.06-52.61H196.3Z" transform="translate(-79.68 -370.02)"/><path d="M207.89,382.58c-9.49,2.15-7.11,16.64,2.52,15a7.47,7.47,0,0,0,6.07-8.73c-.48-3.57-4.22-7.26-8.59-6.26Z" transform="translate(-79.68 -370.02)"/><path d="M252.59,425.66c.15-.93.15-11.93-.14-12.5-1.19-.23-14.26-.05-17.69-.05-.79,0-.82-.06-1.07.19l18.68,0c.17.68,0,5.1,0,6.21s-.25,5.36.17,6.12Z" transform="translate(-79.68 -370.02)"/><path d="M140.6,527.94V515.72h4.56a5.58,5.58,0,0,1,2.27.37,2.74,2.74,0,0,1,1.3,1.13,2.84,2.84,0,0,1,.48,1.62,2.78,2.78,0,0,1-.42,1.47,3.13,3.13,0,0,1-1.28,1.11,3.1,3.1,0,0,1,1.7,1.13,2.9,2.9,0,0,1,.6,1.84,3.3,3.3,0,0,1-.37,1.59,2.81,2.81,0,0,1-.88,1.13,3.5,3.5,0,0,1-1.33.63,9.76,9.76,0,0,1-2,.2Zm1.61-7.09h2.64a6.55,6.55,0,0,0,1.53-.14,1.63,1.63,0,0,0,.94-.63,1.61,1.61,0,0,0,.31-1,1.9,1.9,0,0,0-.29-1.08,1.47,1.47,0,0,0-.85-.65,6.46,6.46,0,0,0-1.84-.17h-2.44Zm0,5.64h3a5,5,0,0,0,1.1-.06,2.24,2.24,0,0,0,.94-.34,1.59,1.59,0,0,0,.62-.68,2.26,2.26,0,0,0,.23-1,2.16,2.16,0,0,0-.34-1.19,2,2,0,0,0-1-.71,6.11,6.11,0,0,0-1.81-.19h-2.81Zm23.47,1.45v-5.19l-4.7-7h1.93l2.43,3.68c.46.68.85,1.39,1.25,2.07.37-.65.82-1.36,1.33-2.15l2.38-3.6h1.88l-4.88,7v5.19Zm32,0V515.72h1.67l6.4,9.58v-9.58h1.56v12.22h-1.67l-6.41-9.61v9.61Zm22.81,0V515.72h1.65v12.22Zm14.66,0V515.72h1.67l6.41,9.58v-9.58h1.56v12.22h-1.68l-6.4-9.61v9.61Zm22.05-6a6.73,6.73,0,0,1,1.65-4.76,5.59,5.59,0,0,1,4.22-1.73,6,6,0,0,1,3.06.82,5.47,5.47,0,0,1,2.07,2.24,7.75,7.75,0,0,1,.71,3.29,7,7,0,0,1-.77,3.32,5,5,0,0,1-2.12,2.24,6.26,6.26,0,0,1-2.95.73,5.92,5.92,0,0,1-3.09-.82,5.49,5.49,0,0,1-2.07-2.26,7.23,7.23,0,0,1-.71-3.07Zm1.68,0a4.88,4.88,0,0,0,1.19,3.49,4.17,4.17,0,0,0,6,0,5.15,5.15,0,0,0,1.19-3.63,6.23,6.23,0,0,0-.51-2.61,3.94,3.94,0,0,0-1.48-1.72,4,4,0,0,0-2.18-.6,4.23,4.23,0,0,0-2.95,1.16,5.31,5.31,0,0,0-1.24,3.94Zm36.53,5.93V515.72h4.2a10.59,10.59,0,0,1,2.18.17,4,4,0,0,1,1.79.88,4.91,4.91,0,0,1,1.44,2.07,7.88,7.88,0,0,1,.49,2.92,8,8,0,0,1-.32,2.46,6.32,6.32,0,0,1-.82,1.79,5.31,5.31,0,0,1-1.13,1.1,4.71,4.71,0,0,1-1.45.63,10.18,10.18,0,0,1-1.95.2Zm1.62-1.45h2.61a5.81,5.81,0,0,0,1.9-.23,2.62,2.62,0,0,0,1.1-.62,4,4,0,0,0,.88-1.56,7.08,7.08,0,0,0,.31-2.35,5.68,5.68,0,0,0-.62-3,3.17,3.17,0,0,0-1.53-1.39,6.2,6.2,0,0,0-2.07-.25h-2.58ZM318,527.94V515.72h8.81v1.42h-7.2v3.77h6.75v1.41h-6.75v4.17h7.49v1.45Zm25,0-4.74-12.22h1.76l3.18,8.87c.25.71.48,1.39.65,2a17.39,17.39,0,0,1,.65-2l3.29-8.87h1.64l-4.76,12.22Zm18.11,0V515.72h4.2a10.8,10.8,0,0,1,2.18.17,4,4,0,0,1,1.78.88,4.84,4.84,0,0,1,1.45,2.07,7.88,7.88,0,0,1,.48,2.92,9.08,9.08,0,0,1-.31,2.46,6.62,6.62,0,0,1-.85,1.79,5,5,0,0,1-1.11,1.1,4.54,4.54,0,0,1-1.44.63,10.8,10.8,0,0,1-2,.2Zm1.62-1.45h2.6a5.74,5.74,0,0,0,1.9-.23,2.32,2.32,0,0,0,1.08-.62,4,4,0,0,0,.91-1.56,8,8,0,0,0,.31-2.35,5.68,5.68,0,0,0-.62-3,3.3,3.3,0,0,0-1.53-1.39,6.28,6.28,0,0,0-2.1-.25h-2.55Zm19.56,1.45,4.7-12.22h1.76l5,12.22H392l-1.42-3.72H385.4l-1.34,3.72Zm3.51-5H390l-1.28-3.4c-.37-1-.68-1.87-.88-2.55a21.54,21.54,0,0,1-.65,2.35Zm19.45,5V515.72h5.41a7.85,7.85,0,0,1,2.5.31,2.88,2.88,0,0,1,1.36,1.16,3.56,3.56,0,0,1,.51,1.85,3.13,3.13,0,0,1-.85,2.21,4.34,4.34,0,0,1-2.61,1.13,4.5,4.5,0,0,1,1,.6,8.57,8.57,0,0,1,1.33,1.61l2.13,3.35h-2l-1.62-2.55a14.35,14.35,0,0,0-1.16-1.68,3.3,3.3,0,0,0-.82-.82,2.61,2.61,0,0,0-.74-.34,5.64,5.64,0,0,0-.91-.06h-1.87v5.45Zm1.61-6.83h3.49a5.6,5.6,0,0,0,1.73-.23,1.66,1.66,0,0,0,.93-.74,1.93,1.93,0,0,0,.34-1.1,1.88,1.88,0,0,0-.62-1.42,3,3,0,0,0-2-.57h-3.89Zm21.15,6.83V515.72h1.64v12.22Zm13.35,0,4.68-12.22h1.78l5,12.22H451l-1.39-3.72h-5.16l-1.33,3.72Zm3.51-5h4.17l-1.27-3.4c-.4-1-.68-1.87-.88-2.55a18,18,0,0,1-.68,2.35Zm19.39,5V515.72H466l6.43,9.58v-9.58H474v12.22h-1.67l-6.41-9.61v9.61Zm22.82,0V515.72h1.62v12.22Z" transform="translate(-79.68 -370.02)"/></svg>
