<?xml version="1.0" encoding="UTF-8"?>
<!DOCTYPE svg PUBLIC "-//W3C//DTD SVG 1.1//EN" "http://www.w3.org/Graphics/SVG/1.1/DTD/svg11.dtd">
<!-- Creator: CorelDRAW 2020 (64-Bit) -->
<svg xmlns="http://www.w3.org/2000/svg" xml:space="preserve" width="930px" height="930px" version="1.1" style="shape-rendering:geometricPrecision; text-rendering:geometricPrecision; image-rendering:optimizeQuality; fill-rule:evenodd; clip-rule:evenodd"
viewBox="0 0 174.89 174.89"
 xmlns:xlink="http://www.w3.org/1999/xlink"
 xmlns:xodm="http://www.corel.com/coreldraw/odm/2003">
 <defs>
  <style type="text/css">
   <![CDATA[
    .fil0 {fill:#11100E}
    .fil1 {fill:#B99A5B}
   ]]>
  </style>
 </defs>
 <g id="Layer_x0020_1">
  <metadata id="CorelCorpID_0Corel-Layer"/>
  <rect class="fil0" width="174.89" height="174.89" rx="14.8" ry="14.8"/>
  <path class="fil1" d="M31.45 155.53c1.57,0.07 10.42,0.13 11.42,-0.15l0.66 -130.8c0.02,-0.44 -0.09,-1.78 0.26,-2.06 1.57,-0.73 29.09,-0.55 32.87,-0.35 65.63,3.39 69.38,108.71 17.38,127.64 -2.13,0.77 -4.16,1.43 -6.39,2 -1.36,0.35 -6,1.05 -6.89,1.46l-0.05 2.3c4.78,0.14 12.06,-1.77 16.31,-3.13 59.72,-19.11 61.74,-105.12 6.49,-127.2 -11.8,-4.71 -20.25,-5.74 -32.99,-5.79l-29.2 -0.03c-2.97,-0.04 -6.94,-0.25 -9.81,-0.01l-0.06 136.12z"/>
 </g>
</svg>
